<svg width="418" height="211" viewBox="0 0 418 211" fill="none" xmlns="http://www.w3.org/2000/svg">
<path d="M4.8 113.127H44.8L44.88 102.327H17.2V88.6473H43.28V77.8473H17.2V64.3273H44.88V53.5273H4.8V113.127ZM75.4869 68.4873C69.9669 68.4873 65.4869 70.4873 63.2469 74.7273V69.4473H52.0469V113.127H64.0469V87.6073C64.0469 82.5673 67.3269 79.2873 72.0469 79.2873C76.7669 79.2873 80.0469 82.5673 80.0469 87.6073V113.127H92.0469V85.0473C92.0469 75.1273 85.3269 68.4873 75.4869 68.4873ZM131.554 69.4473V74.0873C128.514 70.5673 124.034 68.4873 118.354 68.4873C107.234 68.4873 96.8344 76.4073 96.8344 89.6073C96.8344 102.487 106.754 110.967 118.594 110.967C123.474 110.967 127.714 109.447 130.754 106.567V110.807C130.754 116.487 126.274 120.087 120.274 120.087C114.994 120.087 111.314 117.287 109.954 112.567L99.7144 117.607C102.274 125.607 110.274 130.887 120.274 130.887C132.434 130.887 142.754 123.047 142.754 110.807V69.4473H131.554ZM120.114 100.087C113.954 100.087 109.234 95.8473 109.234 89.7673C109.234 83.5273 114.114 79.2873 120.114 79.2873C126.114 79.2873 130.754 83.5273 130.754 89.7673C130.754 95.8473 126.274 100.087 120.114 100.087ZM150.719 113.127H162.719V53.5273H150.719V113.127ZM170.719 65.5273H182.719V53.5273H170.719V65.5273ZM170.719 113.127H182.719V69.4473H170.719V113.127ZM208.399 114.087C218.879 114.087 226.159 108.567 226.159 100.487C226.159 94.2473 221.999 89.7673 214.239 87.6873L206.159 85.5273C204.719 85.1273 201.679 84.3273 201.679 81.6873C201.679 79.4473 203.759 78.0873 207.279 78.0873C211.999 78.0873 215.759 80.3273 217.199 84.0873L226.159 79.9273C223.359 72.8073 216.239 68.4873 207.279 68.4873C197.039 68.4873 190.079 74.0073 190.079 82.0873C190.079 88.0873 193.919 92.7273 201.839 94.8073L209.519 96.8073C211.039 97.2073 214.559 98.0873 214.559 100.967C214.559 103.367 212.159 104.887 208.399 104.887C203.439 104.887 199.519 102.247 197.199 97.3673L188.319 101.527C191.039 109.447 198.879 114.087 208.399 114.087ZM255.174 68.4873C250.294 68.4873 246.134 70.0873 243.734 73.4473V53.5273H231.734V113.127H243.734V87.5273C243.734 82.5673 247.014 79.2873 251.734 79.2873C256.454 79.2873 259.734 82.5673 259.734 87.5273V113.127H271.734V84.9673C271.734 75.0473 265.014 68.4873 255.174 68.4873ZM32.88 194.087C45.76 194.087 55.28 186.967 58.4 178.167L47.44 172.887C45.36 178.647 40.08 182.887 32.88 182.887C22.32 182.887 15.2 174.967 15.2 163.287C15.2 151.687 22.32 143.767 32.88 143.767C40.08 143.767 45.36 148.007 47.44 153.767L58.4 148.487C55.28 139.687 45.76 132.567 32.88 132.567C15.6 132.567 2.8 145.527 2.8 163.287C2.8 180.967 15.76 194.087 32.88 194.087ZM82.56 148.487C73.28 148.487 65.76 153.127 63.2 160.327L73.52 165.287C74.8 161.367 78.32 158.887 82.56 158.887C86.56 158.887 89.28 161.047 89.28 164.327V165.767L75.6 168.647C66.72 170.487 61.6 174.727 61.6 181.207C61.6 188.487 67.84 194.087 77.76 194.087C82.8 194.087 86.8 192.567 90.08 189.127V193.127H101.28V164.327C101.28 154.967 93.68 148.487 82.56 148.487ZM79.6 185.287C76.16 185.287 74 183.687 74 181.047C74 179.047 75.28 177.527 77.76 176.967L89.28 174.407V176.487C89.28 181.367 85.04 185.287 79.6 185.287ZM156.632 148.487C150.712 148.487 145.832 151.207 143.352 155.207C140.552 150.807 135.912 148.487 130.312 148.487C125.032 148.487 120.952 150.567 118.872 154.727V149.447H107.672V193.127H119.672V167.607C119.672 162.247 122.552 159.287 126.792 159.287C131.032 159.287 133.912 162.247 133.912 167.607V193.127H145.912V167.607C145.912 162.247 148.792 159.287 153.032 159.287C157.272 159.287 160.152 162.247 160.152 167.607V193.127H172.152V165.047C172.152 154.967 165.752 148.487 156.632 148.487ZM203.951 148.487C198.351 148.487 193.631 150.487 190.591 154.007V149.447H179.391V209.127H191.391V189.687C194.351 192.407 198.751 194.087 203.871 194.087C216.511 194.087 226.111 184.007 226.111 171.287C226.111 158.487 216.351 148.487 203.951 148.487ZM202.431 183.287C195.951 183.287 191.391 178.327 191.391 171.287C191.391 164.247 195.951 159.287 202.431 159.287C208.991 159.287 213.711 164.327 213.711 171.287C213.711 178.247 208.991 183.287 202.431 183.287Z" fill="white"/>
<path d="M282.52 165.127H285.93V148.737L279.44 148.759V151.619H282.52V165.127ZM292.209 165.127H295.619V148.737L289.129 148.759V151.619H292.209V165.127ZM299.809 165.127H303.109V161.827H299.809V165.127ZM305.755 160.639H316.755V157.779H305.755V160.639ZM321.493 165.127H324.903V148.737L318.413 148.759V151.619H321.493V165.127ZM334.504 154.325C333.668 154.325 332.986 154.479 332.414 154.809L332.942 151.575L339.454 151.597V148.737H330.632L329.092 157.911L331.776 158.571C332.15 157.647 332.854 157.185 333.866 157.185C335.384 157.185 336.418 158.219 336.418 159.737C336.418 161.277 335.384 162.311 333.866 162.311C332.524 162.311 331.38 161.497 330.918 160.265L328.212 161.805C328.982 163.961 331.226 165.391 333.866 165.391C337.298 165.391 339.828 162.883 339.828 159.517C339.828 156.459 337.65 154.325 334.504 154.325ZM342.133 165.127H345.433V161.827H342.133V165.127ZM352.296 165.127H355.882L362.306 151.575V148.715H351.152V151.575H358.918L352.296 165.127ZM364.176 165.127H367.476V161.827H364.176V165.127ZM280.32 193.127H283.73V186.835H290.44V183.865H283.73V179.707H291.54V176.737H280.32V193.127ZM297.3 180.851C294.748 180.851 292.68 182.127 291.976 184.107L294.814 185.471C295.166 184.393 296.134 183.711 297.3 183.711C298.4 183.711 299.148 184.305 299.148 185.207V185.603L295.386 186.395C292.944 186.901 291.536 188.067 291.536 189.849C291.536 191.851 293.252 193.391 295.98 193.391C297.366 193.391 298.466 192.973 299.368 192.027V193.127H302.448V185.207C302.448 182.633 300.358 180.851 297.3 180.851ZM296.486 190.971C295.54 190.971 294.946 190.531 294.946 189.805C294.946 189.255 295.298 188.837 295.98 188.683L299.148 187.979V188.551C299.148 189.893 297.982 190.971 296.486 190.971ZM310.541 180.983C309.067 180.983 307.901 181.423 307.285 182.919V181.115H304.205V193.127H307.505V186.659C307.505 184.877 308.605 183.843 310.211 183.843H311.795V180.983H310.541ZM318.225 180.851C315.673 180.851 313.605 182.127 312.901 184.107L315.739 185.471C316.091 184.393 317.059 183.711 318.225 183.711C319.325 183.711 320.073 184.305 320.073 185.207V185.603L316.311 186.395C313.869 186.901 312.461 188.067 312.461 189.849C312.461 191.851 314.177 193.391 316.905 193.391C318.291 193.391 319.391 192.973 320.293 192.027V193.127H323.373V185.207C323.373 182.633 321.283 180.851 318.225 180.851ZM317.411 190.971C316.465 190.971 315.871 190.531 315.871 189.805C315.871 189.255 316.223 188.837 316.905 188.683L320.073 187.979V188.551C320.073 189.893 318.907 190.971 317.411 190.971ZM340.458 184.283C341.272 183.491 341.624 182.545 341.624 181.533C341.624 178.519 339.622 176.737 336.234 176.737H329.304V193.127H336.234C340.04 193.127 342.306 191.257 342.306 188.023C342.306 186.593 341.91 185.273 340.458 184.283ZM332.714 179.597H336.476C337.532 179.597 338.214 180.257 338.214 181.247C338.214 182.237 337.532 182.897 336.476 182.897H332.714V179.597ZM336.63 190.157H332.714V185.867H336.63C337.994 185.867 338.896 186.725 338.896 188.023C338.896 189.299 337.994 190.157 336.63 190.157ZM352.155 181.115L349.317 188.903L346.479 181.115H342.959L347.667 193.127L347.359 193.809C347.073 194.447 346.699 195.173 345.379 195.173C344.895 195.173 344.301 195.085 343.883 194.953V197.659C344.389 197.923 345.071 198.033 345.775 198.033C349.009 198.033 350.021 195.591 350.461 194.447L355.675 181.115H352.155ZM361.64 193.391C364.522 193.391 366.524 191.873 366.524 189.651C366.524 187.935 365.38 186.703 363.246 186.131L361.024 185.537C360.628 185.427 359.792 185.207 359.792 184.481C359.792 183.865 360.364 183.491 361.332 183.491C362.63 183.491 363.664 184.107 364.06 185.141L366.524 183.997C365.754 182.039 363.796 180.851 361.332 180.851C358.516 180.851 356.602 182.369 356.602 184.591C356.602 186.241 357.658 187.517 359.836 188.089L361.948 188.639C362.366 188.749 363.334 188.991 363.334 189.783C363.334 190.443 362.674 190.861 361.64 190.861C360.276 190.861 359.198 190.135 358.56 188.793L356.118 189.937C356.866 192.115 359.022 193.391 361.64 193.391ZM373.821 193.259C374.327 193.259 374.921 193.215 375.361 193.149V190.553C375.053 190.597 374.789 190.619 374.591 190.619C373.205 190.619 372.545 190.025 372.545 188.793V183.975H375.361V181.115H372.545V177.507H369.245V179.267C369.245 180.499 368.563 181.115 367.331 181.115H367.177V183.975H369.245V188.793C369.245 191.609 370.917 193.259 373.821 193.259ZM383.245 180.983C381.771 180.983 380.605 181.423 379.989 182.919V181.115H376.909V193.127H380.209V186.659C380.209 184.877 381.309 183.843 382.915 183.843H384.499V180.983H383.245ZM378.917 179.047H381.623L384.285 175.527H381.865L380.281 177.749L378.741 175.527H376.277L378.917 179.047ZM385.825 180.037H389.125V176.737H385.825V180.037ZM385.825 193.127H389.125V181.115H385.825V193.127ZM397.023 193.391C399.751 193.391 401.951 191.851 402.633 189.717L399.817 188.331C399.443 189.607 398.387 190.421 397.023 190.421C395.285 190.421 394.075 189.057 394.075 187.121C394.075 185.185 395.285 183.821 397.023 183.821C398.365 183.821 399.443 184.635 399.817 185.911L402.633 184.547C401.907 182.325 399.707 180.851 397.023 180.851C393.393 180.851 390.665 183.535 390.665 187.099C390.665 190.685 393.415 193.391 397.023 193.391ZM415.331 186.769C415.331 183.447 412.735 180.851 409.369 180.851C405.937 180.851 403.297 183.513 403.297 187.099C403.297 190.575 405.783 193.391 409.589 193.391C412.053 193.391 414.033 192.225 414.759 190.465L412.119 189.211C411.657 190.025 410.799 190.531 409.633 190.531C408.005 190.531 406.927 189.563 406.729 188.045H415.177C415.287 187.715 415.331 187.253 415.331 186.769ZM406.795 185.625C407.125 184.239 408.071 183.491 409.369 183.491C410.733 183.491 411.701 184.349 411.833 185.625H406.795Z" fill="white"/>
<path d="M3 2.93079C3 1.31216 4.31216 0 5.93079 0L122.654 0C124.273 0 125.585 1.31216 125.585 2.93079V25.8846C125.585 27.5033 124.273 28.8154 122.654 28.8154L5.93079 28.8154C4.31216 28.8154 3 27.5033 3 25.8846L3 2.93079Z" fill="#4A93FF"/>
<path d="M25.735 7.93628L23.6903 16.6464L21.7583 7.93628H18.7315L16.7995 16.6464L14.7548 7.93628H12.0339L14.9963 19.9308H18.2485L20.1644 11.4139L22.0803 19.9308H25.3325L28.2949 7.93628L25.735 7.93628ZM34.0593 10.947C33.0772 10.947 32.24 11.269 31.757 11.9452V7.93628H29.342V19.9308H31.757V14.7788C31.757 13.7806 32.4171 13.1205 33.367 13.1205C34.3169 13.1205 34.977 13.7806 34.977 14.7788V19.9308H37.392V14.2636C37.392 12.2672 36.0396 10.947 34.0593 10.947ZM43.0567 20.124C45.6649 20.124 47.7579 18.192 47.7579 15.5355C47.7579 12.879 45.6649 10.947 43.0567 10.947C40.4485 10.947 38.3555 12.879 38.3555 15.5355C38.3555 18.192 40.4485 20.124 43.0567 20.124ZM43.0567 17.9505C41.7365 17.9505 40.851 16.9523 40.851 15.5355C40.851 14.1348 41.7365 13.1205 43.0567 13.1205C44.3769 13.1205 45.2624 14.1348 45.2624 15.5355C45.2624 16.9523 44.3769 17.9505 43.0567 17.9505ZM51.7782 10.3513H54.1932V7.93628H51.7782V10.3513ZM51.7782 19.9308H54.1932V11.1402H51.7782V19.9308ZM59.3613 20.124C61.4704 20.124 62.9355 19.0131 62.9355 17.387C62.9355 16.1312 62.0983 15.2296 60.5366 14.811L58.9105 14.3763C58.6207 14.2958 58.0089 14.1348 58.0089 13.6035C58.0089 13.1527 58.4275 12.879 59.1359 12.879C60.0858 12.879 60.8425 13.3298 61.1323 14.0865L62.9355 13.2493C62.372 11.8164 60.9391 10.947 59.1359 10.947C57.0751 10.947 55.6744 12.0579 55.6744 13.684C55.6744 14.8915 56.4472 15.8253 58.0411 16.2439L59.5867 16.6464C59.8926 16.7269 60.601 16.904 60.601 17.4836C60.601 17.9666 60.118 18.2725 59.3613 18.2725C58.3631 18.2725 57.5742 17.7412 57.1073 16.7591L55.3202 17.5963C55.8676 19.1902 57.4454 20.124 59.3613 20.124ZM66.3066 19.9308H67.1116C69.6232 19.9308 71.2171 18.3852 71.2171 16.0668V7.93628H68.7216V16.1795C68.7216 17.0811 68.0776 17.6768 67.1116 17.6768H66.3066V19.9308ZM81.3118 15.2779C81.3118 12.8468 79.412 10.947 76.9487 10.947C74.4371 10.947 72.5051 12.8951 72.5051 15.5194C72.5051 18.0632 74.3244 20.124 77.1097 20.124C78.9129 20.124 80.3619 19.2707 80.8932 17.9827L78.9612 17.065C78.6231 17.6607 77.9952 18.031 77.1419 18.031C75.9505 18.031 75.1616 17.3226 75.0167 16.2117H81.1991C81.2796 15.9702 81.3118 15.6321 81.3118 15.2779ZM75.065 14.4407C75.3065 13.4264 75.9988 12.879 76.9487 12.879C77.9469 12.879 78.6553 13.5069 78.7519 14.4407H75.065ZM85.8383 20.124C87.9474 20.124 89.4125 19.0131 89.4125 17.387C89.4125 16.1312 88.5753 15.2296 87.0136 14.811L85.3875 14.3763C85.0977 14.2958 84.4859 14.1348 84.4859 13.6035C84.4859 13.1527 84.9045 12.879 85.6129 12.879C86.5628 12.879 87.3195 13.3298 87.6093 14.0865L89.4125 13.2493C88.849 11.8164 87.4161 10.947 85.6129 10.947C83.5521 10.947 82.1514 12.0579 82.1514 13.684C82.1514 14.8915 82.9242 15.8253 84.5181 16.2439L86.0637 16.6464C86.3696 16.7269 87.078 16.904 87.078 17.4836C87.078 17.9666 86.595 18.2725 85.8383 18.2725C84.8401 18.2725 84.0512 17.7412 83.5843 16.7591L81.7972 17.5963C82.3446 19.1902 83.9224 20.124 85.8383 20.124ZM96.0086 11.1402V16.2761C96.0086 17.2904 95.3485 17.9505 94.3986 17.9505C93.4487 17.9505 92.7886 17.2904 92.7886 16.2761V11.1402H90.3736V16.4854C90.3736 18.6428 91.7421 20.124 93.7546 20.124C94.8494 20.124 95.7188 19.6893 96.1696 18.8682V19.9308H98.4236V11.1402H96.0086ZM103.589 20.124C105.698 20.124 107.163 19.0131 107.163 17.387C107.163 16.1312 106.326 15.2296 104.764 14.811L103.138 14.3763C102.849 14.2958 102.237 14.1348 102.237 13.6035C102.237 13.1527 102.655 12.879 103.364 12.879C104.314 12.879 105.07 13.3298 105.36 14.0865L107.163 13.2493C106.6 11.8164 105.167 10.947 103.364 10.947C101.303 10.947 99.9023 12.0579 99.9023 13.684C99.9023 14.8915 100.675 15.8253 102.269 16.2439L103.815 16.6464C104.12 16.7269 104.829 16.904 104.829 17.4836C104.829 17.9666 104.346 18.2725 103.589 18.2725C102.591 18.2725 101.802 17.7412 101.335 16.7591L99.5481 17.5963C100.095 19.1902 101.673 20.124 103.589 20.124ZM110.765 16.2278H113.019V16.0185C113.019 15.1008 113.631 14.4568 114.291 13.8289C115.047 13.0883 115.852 12.3316 115.852 11.108C115.852 9.41748 114.371 7.74309 111.86 7.74309C110.008 7.74309 108.398 8.80569 107.883 10.3674L109.847 11.4944C110.185 10.5123 110.894 9.99709 111.86 9.99709C112.777 9.99709 113.357 10.4157 113.357 11.0919C113.357 11.7681 112.761 12.2672 112.149 12.8951C111.473 13.5874 110.765 14.4407 110.765 15.8575V16.2278ZM110.7 19.9308H113.115V17.5158H110.7V19.9308Z" fill="white"/>
</svg>
